<svg width="120" height="40" viewBox="0 0 120 40" fill="none" xmlns="http://www.w3.org/2000/svg">
<rect x="0.5" y="0.5" width="119" height="39" rx="19.5" stroke="white"/>
<path d="M20.2784 26V14.3636H22.0341V24.4886H27.3068V26H20.2784ZM32.4347 26.1761C31.5748 26.1761 30.8343 25.9924 30.2131 25.625C29.5956 25.2538 29.1184 24.733 28.7812 24.0625C28.4479 23.3883 28.2812 22.5985 28.2812 21.6932C28.2812 20.7992 28.4479 20.0114 28.7812 19.3295C29.1184 18.6477 29.5881 18.1155 30.1903 17.733C30.7964 17.3504 31.5047 17.1591 32.3153 17.1591C32.8078 17.1591 33.285 17.2405 33.7472 17.4034C34.2093 17.5663 34.6241 17.822 34.9915 18.1705C35.3589 18.5189 35.6487 18.9716 35.8608 19.5284C36.0729 20.0814 36.179 20.7538 36.179 21.5455V22.1477H29.2415V20.875H34.5142C34.5142 20.428 34.4233 20.0322 34.2415 19.6875C34.0597 19.339 33.804 19.0644 33.4744 18.8636C33.1487 18.6629 32.7661 18.5625 32.3267 18.5625C31.8494 18.5625 31.4328 18.6799 31.0767 18.9148C30.7244 19.1458 30.4517 19.4489 30.2585 19.8239C30.0691 20.1951 29.9744 20.5985 29.9744 21.0341V22.0284C29.9744 22.6117 30.0767 23.108 30.2812 23.517C30.4896 23.9261 30.7794 24.2386 31.1506 24.4545C31.5218 24.6667 31.9555 24.7727 32.4517 24.7727C32.7737 24.7727 33.0672 24.7273 33.3324 24.6364C33.5975 24.5417 33.8267 24.4015 34.0199 24.2159C34.2131 24.0303 34.3608 23.8011 34.4631 23.5284L36.071 23.8182C35.9422 24.2917 35.7112 24.7064 35.3778 25.0625C35.0483 25.4148 34.6335 25.6894 34.1335 25.8864C33.6373 26.0795 33.071 26.1761 32.4347 26.1761ZM40.1037 26.1932C39.5507 26.1932 39.0507 26.0909 38.6037 25.8864C38.1567 25.678 37.8026 25.3769 37.5412 24.983C37.2836 24.589 37.1548 24.1061 37.1548 23.5341C37.1548 23.0417 37.2495 22.6364 37.4389 22.3182C37.6283 22 37.884 21.7481 38.206 21.5625C38.5279 21.3769 38.8878 21.2367 39.2855 21.142C39.6832 21.0473 40.0885 20.9754 40.5014 20.9261C41.0241 20.8655 41.4484 20.8163 41.7741 20.7784C42.0999 20.7367 42.3366 20.6705 42.4844 20.5795C42.6321 20.4886 42.706 20.3409 42.706 20.1364V20.0966C42.706 19.6004 42.5658 19.2159 42.2855 18.9432C42.009 18.6705 41.5961 18.5341 41.0469 18.5341C40.4749 18.5341 40.0241 18.661 39.6946 18.9148C39.3688 19.1648 39.1435 19.4432 39.0185 19.75L37.4219 19.3864C37.6113 18.8561 37.8878 18.428 38.2514 18.1023C38.6188 17.7727 39.0412 17.5341 39.5185 17.3864C39.9957 17.2348 40.4976 17.1591 41.0241 17.1591C41.3726 17.1591 41.742 17.2008 42.1321 17.2841C42.526 17.3636 42.8935 17.5114 43.2344 17.7273C43.5791 17.9432 43.8613 18.2519 44.081 18.6534C44.3007 19.0511 44.4105 19.5682 44.4105 20.2045V26H42.7514V24.8068H42.6832C42.5734 25.0265 42.4086 25.2424 42.1889 25.4545C41.9692 25.6667 41.687 25.8428 41.3423 25.983C40.9976 26.1231 40.5848 26.1932 40.1037 26.1932ZM40.473 24.8295C40.9427 24.8295 41.3442 24.7367 41.6776 24.5511C42.0147 24.3655 42.2704 24.1231 42.4446 23.8239C42.6226 23.5208 42.7116 23.197 42.7116 22.8523V21.7273C42.651 21.7879 42.5336 21.8447 42.3594 21.8977C42.1889 21.947 41.9938 21.9905 41.7741 22.0284C41.5545 22.0625 41.3404 22.0947 41.1321 22.125C40.9238 22.1515 40.7495 22.1742 40.6094 22.1932C40.2798 22.2348 39.9787 22.3049 39.706 22.4034C39.437 22.5019 39.2211 22.6439 39.0582 22.8295C38.8991 23.0114 38.8196 23.2538 38.8196 23.5568C38.8196 23.9773 38.9749 24.2955 39.2855 24.5114C39.5961 24.7235 39.992 24.8295 40.473 24.8295ZM46.1733 26V17.2727H47.8153V18.6591H47.9062C48.0653 18.1894 48.3456 17.8201 48.7472 17.5511C49.1525 17.2784 49.6108 17.142 50.1222 17.142C50.2282 17.142 50.3532 17.1458 50.4972 17.1534C50.6449 17.161 50.7604 17.1705 50.8438 17.1818V18.8068C50.7756 18.7879 50.6544 18.767 50.4801 18.7443C50.3059 18.7178 50.1316 18.7045 49.9574 18.7045C49.5559 18.7045 49.1979 18.7898 48.8835 18.9602C48.5729 19.1269 48.3267 19.3598 48.1449 19.6591C47.9631 19.9545 47.8722 20.2917 47.8722 20.6705V26H46.1733ZM53.5128 20.8182V26H51.8139V17.2727H53.4446V18.6932H53.5526C53.7533 18.2311 54.0677 17.8598 54.4957 17.5795C54.9276 17.2992 55.4711 17.1591 56.1264 17.1591C56.7211 17.1591 57.242 17.2841 57.6889 17.5341C58.1359 17.7803 58.4825 18.1477 58.7287 18.6364C58.9749 19.125 59.098 19.7292 59.098 20.4489V26H57.3991V20.6534C57.3991 20.0208 57.2344 19.5265 56.9048 19.1705C56.5753 18.8106 56.1226 18.6307 55.5469 18.6307C55.1529 18.6307 54.8026 18.7159 54.4957 18.8864C54.1927 19.0568 53.9522 19.3068 53.7741 19.6364C53.5999 19.9621 53.5128 20.3561 53.5128 20.8182ZM64.6108 26V17.2727H66.2415V18.6932H66.3494C66.5313 18.2121 66.8286 17.8371 67.2415 17.5682C67.6544 17.2955 68.1487 17.1591 68.7244 17.1591C69.3078 17.1591 69.7964 17.2955 70.1903 17.5682C70.5881 17.8409 70.8816 18.2159 71.071 18.6932H71.1619C71.3703 18.2273 71.7017 17.8561 72.1562 17.5795C72.6108 17.2992 73.1525 17.1591 73.7812 17.1591C74.5729 17.1591 75.2188 17.4072 75.7188 17.9034C76.2225 18.3996 76.4744 19.1477 76.4744 20.1477V26H74.7756V20.3068C74.7756 19.7159 74.6146 19.2879 74.2926 19.0227C73.9706 18.7576 73.5862 18.625 73.1392 18.625C72.5862 18.625 72.1562 18.7955 71.8494 19.1364C71.5426 19.4735 71.3892 19.9072 71.3892 20.4375V26H69.696V20.1989C69.696 19.7254 69.5483 19.3447 69.2528 19.0568C68.9574 18.7689 68.5729 18.625 68.0994 18.625C67.7775 18.625 67.4801 18.7102 67.2074 18.8807C66.9384 19.0473 66.7206 19.2803 66.554 19.5795C66.3911 19.8788 66.3097 20.2254 66.3097 20.6193V26H64.6108ZM81.9276 26.1761C81.1094 26.1761 80.3954 25.9886 79.7855 25.6136C79.1757 25.2386 78.7022 24.714 78.3651 24.0398C78.0279 23.3655 77.8594 22.5777 77.8594 21.6761C77.8594 20.7708 78.0279 19.9792 78.3651 19.3011C78.7022 18.6231 79.1757 18.0966 79.7855 17.7216C80.3954 17.3466 81.1094 17.1591 81.9276 17.1591C82.7457 17.1591 83.4598 17.3466 84.0696 17.7216C84.6795 18.0966 85.1529 18.6231 85.4901 19.3011C85.8272 19.9792 85.9957 20.7708 85.9957 21.6761C85.9957 22.5777 85.8272 23.3655 85.4901 24.0398C85.1529 24.714 84.6795 25.2386 84.0696 25.6136C83.4598 25.9886 82.7457 26.1761 81.9276 26.1761ZM81.9332 24.75C82.4635 24.75 82.9029 24.6098 83.2514 24.3295C83.5999 24.0492 83.8575 23.6761 84.0241 23.2102C84.1946 22.7443 84.2798 22.2311 84.2798 21.6705C84.2798 21.1136 84.1946 20.6023 84.0241 20.1364C83.8575 19.6667 83.5999 19.2898 83.2514 19.0057C82.9029 18.7216 82.4635 18.5795 81.9332 18.5795C81.3991 18.5795 80.956 18.7216 80.6037 19.0057C80.2552 19.2898 79.9957 19.6667 79.8253 20.1364C79.6586 20.6023 79.5753 21.1136 79.5753 21.6705C79.5753 22.2311 79.6586 22.7443 79.8253 23.2102C79.9957 23.6761 80.2552 24.0492 80.6037 24.3295C80.956 24.6098 81.3991 24.75 81.9332 24.75ZM87.392 26V17.2727H89.0341V18.6591H89.125C89.2841 18.1894 89.5644 17.8201 89.9659 17.5511C90.3712 17.2784 90.8295 17.142 91.3409 17.142C91.447 17.142 91.572 17.1458 91.7159 17.1534C91.8636 17.161 91.9792 17.1705 92.0625 17.1818V18.8068C91.9943 18.7879 91.8731 18.767 91.6989 18.7443C91.5246 18.7178 91.3504 18.7045 91.1761 18.7045C90.7746 18.7045 90.4167 18.7898 90.1023 18.9602C89.7917 19.1269 89.5455 19.3598 89.3636 19.6591C89.1818 19.9545 89.0909 20.2917 89.0909 20.6705V26H87.392ZM96.4815 26.1761C95.6217 26.1761 94.8812 25.9924 94.2599 25.625C93.6425 25.2538 93.1652 24.733 92.8281 24.0625C92.4948 23.3883 92.3281 22.5985 92.3281 21.6932C92.3281 20.7992 92.4948 20.0114 92.8281 19.3295C93.1652 18.6477 93.6349 18.1155 94.2372 17.733C94.8433 17.3504 95.5516 17.1591 96.3622 17.1591C96.8546 17.1591 97.3319 17.2405 97.794 17.4034C98.2562 17.5663 98.6709 17.822 99.0384 18.1705C99.4058 18.5189 99.6955 18.9716 99.9077 19.5284C100.12 20.0814 100.226 20.7538 100.226 21.5455V22.1477H93.2884V20.875H98.5611C98.5611 20.428 98.4702 20.0322 98.2884 19.6875C98.1065 19.339 97.8509 19.0644 97.5213 18.8636C97.1955 18.6629 96.813 18.5625 96.3736 18.5625C95.8963 18.5625 95.4796 18.6799 95.1236 18.9148C94.7713 19.1458 94.4986 19.4489 94.3054 19.8239C94.116 20.1951 94.0213 20.5985 94.0213 21.0341V22.0284C94.0213 22.6117 94.1236 23.108 94.3281 23.517C94.5365 23.9261 94.8262 24.2386 95.1974 24.4545C95.5687 24.6667 96.0024 24.7727 96.4986 24.7727C96.8205 24.7727 97.1141 24.7273 97.3793 24.6364C97.6444 24.5417 97.8736 24.4015 98.0668 24.2159C98.2599 24.0303 98.4077 23.8011 98.5099 23.5284L100.118 23.8182C99.9891 24.2917 99.758 24.7064 99.4247 25.0625C99.0952 25.4148 98.6804 25.6894 98.1804 25.8864C97.6842 26.0795 97.1179 26.1761 96.4815 26.1761Z" fill="white"/>
</svg>
