<svg width="40" height="40" viewBox="0 0 40 40" fill="none" xmlns="http://www.w3.org/2000/svg">
<rect x="0.5" y="0.5" width="39" height="39" rx="19.5" fill="white"/>
<rect x="0.5" y="0.5" width="39" height="39" rx="19.5" stroke="black"/>
<path d="M11.6641 24.9993C11.6641 23.7157 11.6641 23.0738 11.953 22.6023C12.1147 22.3384 12.3365 22.1166 12.6003 21.9549C13.0718 21.666 13.7137 21.666 14.9974 21.666C16.2811 21.666 16.9229 21.666 17.3945 21.9549C17.6583 22.1166 17.8801 22.3384 18.0418 22.6023C18.3307 23.0738 18.3307 23.7157 18.3307 24.9993C18.3307 26.283 18.3307 26.9249 18.0418 27.3964C17.8801 27.6603 17.6583 27.8821 17.3945 28.0438C16.9229 28.3327 16.2811 28.3327 14.9974 28.3327C13.7137 28.3327 13.0718 28.3327 12.6003 28.0438C12.3365 27.8821 12.1147 27.6603 11.953 27.3964C11.6641 26.9249 11.6641 26.283 11.6641 24.9993Z" stroke="black" stroke-width="1.5"/>
<path d="M21.6641 24.9993C21.6641 23.7157 21.6641 23.0738 21.953 22.6023C22.1146 22.3384 22.3365 22.1166 22.6003 21.9549C23.0718 21.666 23.7137 21.666 24.9974 21.666C26.2811 21.666 26.923 21.666 27.3945 21.9549C27.6583 22.1166 27.8801 22.3384 28.0418 22.6023C28.3307 23.0738 28.3307 23.7157 28.3307 24.9993C28.3307 26.283 28.3307 26.9249 28.0418 27.3964C27.8801 27.6603 27.6583 27.8821 27.3945 28.0438C26.923 28.3327 26.2811 28.3327 24.9974 28.3327C23.7137 28.3327 23.0718 28.3327 22.6003 28.0438C22.3365 27.8821 22.1146 27.6603 21.953 27.3964C21.6641 26.9249 21.6641 26.283 21.6641 24.9993Z" stroke="black" stroke-width="1.5"/>
<path d="M11.6641 14.9993C11.6641 13.7156 11.6641 13.0738 11.953 12.6023C12.1147 12.3385 12.3365 12.1166 12.6003 11.955C13.0718 11.666 13.7137 11.666 14.9974 11.666C16.2811 11.666 16.9229 11.666 17.3945 11.955C17.6583 12.1166 17.8801 12.3385 18.0418 12.6023C18.3307 13.0738 18.3307 13.7156 18.3307 14.9993C18.3307 16.283 18.3307 16.9249 18.0418 17.3964C17.8801 17.6602 17.6583 17.8821 17.3945 18.0437C16.9229 18.3327 16.2811 18.3327 14.9974 18.3327C13.7137 18.3327 13.0718 18.3327 12.6003 18.0437C12.3365 17.8821 12.1147 17.6602 11.953 17.3964C11.6641 16.9249 11.6641 16.283 11.6641 14.9993Z" stroke="black" stroke-width="1.5"/>
<path d="M21.6641 14.9993C21.6641 13.7156 21.6641 13.0738 21.953 12.6023C22.1146 12.3385 22.3365 12.1166 22.6003 11.955C23.0718 11.666 23.7137 11.666 24.9974 11.666C26.2811 11.666 26.923 11.666 27.3945 11.955C27.6583 12.1166 27.8801 12.3385 28.0418 12.6023C28.3307 13.0738 28.3307 13.7156 28.3307 14.9993C28.3307 16.283 28.3307 16.9249 28.0418 17.3964C27.8801 17.6602 27.6583 17.8821 27.3945 18.0437C26.923 18.3327 26.2811 18.3327 24.9974 18.3327C23.7137 18.3327 23.0718 18.3327 22.6003 18.0437C22.3365 17.8821 22.1146 17.6602 21.953 17.3964C21.6641 16.9249 21.6641 16.283 21.6641 14.9993Z" stroke="black" stroke-width="1.5"/>
</svg>
