<svg width="120" height="40" viewBox="0 0 120 40" fill="none" xmlns="http://www.w3.org/2000/svg">
<rect x="0.5" y="0.5" width="119" height="39" rx="19.5" fill="white"/>
<rect x="0.5" y="0.5" width="119" height="39" rx="19.5" stroke="black"/>
<path d="M27.1534 18.0398C27.0436 17.6951 26.8958 17.3864 26.7102 17.1136C26.5284 16.8371 26.3106 16.6023 26.0568 16.4091C25.803 16.2121 25.5133 16.0625 25.1875 15.9602C24.8655 15.858 24.5114 15.8068 24.125 15.8068C23.4697 15.8068 22.8788 15.9754 22.3523 16.3125C21.8258 16.6496 21.4091 17.1439 21.1023 17.7955C20.7992 18.4432 20.6477 19.2367 20.6477 20.1761C20.6477 21.1193 20.8011 21.9167 21.108 22.5682C21.4148 23.2197 21.8352 23.714 22.3693 24.0511C22.9034 24.3883 23.5114 24.5568 24.1932 24.5568C24.8258 24.5568 25.3769 24.428 25.8466 24.1705C26.3201 23.9129 26.6856 23.5492 26.9432 23.0795C27.2045 22.6061 27.3352 22.0492 27.3352 21.4091L27.7898 21.4943H24.4602V20.0455H29.0341V21.3693C29.0341 22.3466 28.8258 23.1951 28.4091 23.9148C27.9962 24.6307 27.4242 25.1837 26.6932 25.5739C25.9659 25.964 25.1326 26.1591 24.1932 26.1591C23.1402 26.1591 22.2159 25.9167 21.4205 25.4318C20.6288 24.947 20.0114 24.2595 19.5682 23.3693C19.125 22.4754 18.9034 21.4148 18.9034 20.1875C18.9034 19.2595 19.0322 18.4261 19.2898 17.6875C19.5473 16.9489 19.9091 16.322 20.375 15.8068C20.8447 15.2879 21.3958 14.892 22.0284 14.6193C22.6648 14.3428 23.3598 14.2045 24.1136 14.2045C24.7424 14.2045 25.3277 14.2973 25.8693 14.483C26.4148 14.6686 26.8996 14.9318 27.3239 15.2727C27.7519 15.6136 28.1061 16.0189 28.3864 16.4886C28.6667 16.9545 28.8561 17.4716 28.9545 18.0398H27.1534ZM34.3878 26.1761C33.5279 26.1761 32.7874 25.9924 32.1662 25.625C31.5488 25.2538 31.0715 24.733 30.7344 24.0625C30.401 23.3883 30.2344 22.5985 30.2344 21.6932C30.2344 20.7992 30.401 20.0114 30.7344 19.3295C31.0715 18.6477 31.5412 18.1155 32.1435 17.733C32.7495 17.3504 33.4579 17.1591 34.2685 17.1591C34.7609 17.1591 35.2382 17.2405 35.7003 17.4034C36.1624 17.5663 36.5772 17.822 36.9446 18.1705C37.312 18.5189 37.6018 18.9716 37.8139 19.5284C38.026 20.0814 38.1321 20.7538 38.1321 21.5455V22.1477H31.1946V20.875H36.4673C36.4673 20.428 36.3764 20.0322 36.1946 19.6875C36.0128 19.339 35.7571 19.0644 35.4276 18.8636C35.1018 18.6629 34.7192 18.5625 34.2798 18.5625C33.8026 18.5625 33.3859 18.6799 33.0298 18.9148C32.6776 19.1458 32.4048 19.4489 32.2116 19.8239C32.0223 20.1951 31.9276 20.5985 31.9276 21.0341V22.0284C31.9276 22.6117 32.0298 23.108 32.2344 23.517C32.4427 23.9261 32.7325 24.2386 33.1037 24.4545C33.4749 24.6667 33.9086 24.7727 34.4048 24.7727C34.7268 24.7727 35.0204 24.7273 35.2855 24.6364C35.5507 24.5417 35.7798 24.4015 35.973 24.2159C36.1662 24.0303 36.3139 23.8011 36.4162 23.5284L38.0241 23.8182C37.8954 24.2917 37.6643 24.7064 37.331 25.0625C37.0014 25.4148 36.5866 25.6894 36.0866 25.8864C35.5904 26.0795 35.0241 26.1761 34.3878 26.1761ZM43.5909 17.2727V18.6364H38.8239V17.2727H43.5909ZM40.1023 15.1818H41.8011V23.4375C41.8011 23.767 41.8504 24.0152 41.9489 24.1818C42.0473 24.3447 42.1742 24.4564 42.3295 24.517C42.4886 24.5739 42.661 24.6023 42.8466 24.6023C42.983 24.6023 43.1023 24.5928 43.2045 24.5739C43.3068 24.5549 43.3864 24.5398 43.4432 24.5284L43.75 25.9318C43.6515 25.9697 43.5114 26.0076 43.3295 26.0455C43.1477 26.0871 42.9205 26.1098 42.6477 26.1136C42.2008 26.1212 41.7841 26.0417 41.3977 25.875C41.0114 25.7083 40.6989 25.4508 40.4602 25.1023C40.2216 24.7538 40.1023 24.3163 40.1023 23.7898V15.1818ZM51.2443 26.1932C50.6913 26.1932 50.1913 26.0909 49.7443 25.8864C49.2973 25.678 48.9432 25.3769 48.6818 24.983C48.4242 24.589 48.2955 24.1061 48.2955 23.5341C48.2955 23.0417 48.3902 22.6364 48.5795 22.3182C48.7689 22 49.0246 21.7481 49.3466 21.5625C49.6686 21.3769 50.0284 21.2367 50.4261 21.142C50.8239 21.0473 51.2292 20.9754 51.642 20.9261C52.1648 20.8655 52.589 20.8163 52.9148 20.7784C53.2405 20.7367 53.4773 20.6705 53.625 20.5795C53.7727 20.4886 53.8466 20.3409 53.8466 20.1364V20.0966C53.8466 19.6004 53.7064 19.2159 53.4261 18.9432C53.1496 18.6705 52.7367 18.5341 52.1875 18.5341C51.6155 18.5341 51.1648 18.661 50.8352 18.9148C50.5095 19.1648 50.2841 19.4432 50.1591 19.75L48.5625 19.3864C48.7519 18.8561 49.0284 18.428 49.392 18.1023C49.7595 17.7727 50.1818 17.5341 50.6591 17.3864C51.1364 17.2348 51.6383 17.1591 52.1648 17.1591C52.5133 17.1591 52.8826 17.2008 53.2727 17.2841C53.6667 17.3636 54.0341 17.5114 54.375 17.7273C54.7197 17.9432 55.0019 18.2519 55.2216 18.6534C55.4413 19.0511 55.5511 19.5682 55.5511 20.2045V26H53.892V24.8068H53.8239C53.714 25.0265 53.5492 25.2424 53.3295 25.4545C53.1098 25.6667 52.8277 25.8428 52.483 25.983C52.1383 26.1231 51.7254 26.1932 51.2443 26.1932ZM51.6136 24.8295C52.0833 24.8295 52.4848 24.7367 52.8182 24.5511C53.1553 24.3655 53.411 24.1231 53.5852 23.8239C53.7633 23.5208 53.8523 23.197 53.8523 22.8523V21.7273C53.7917 21.7879 53.6742 21.8447 53.5 21.8977C53.3295 21.947 53.1345 21.9905 52.9148 22.0284C52.6951 22.0625 52.4811 22.0947 52.2727 22.125C52.0644 22.1515 51.8902 22.1742 51.75 22.1932C51.4205 22.2348 51.1193 22.3049 50.8466 22.4034C50.5777 22.5019 50.3617 22.6439 50.1989 22.8295C50.0398 23.0114 49.9602 23.2538 49.9602 23.5568C49.9602 23.9773 50.1155 24.2955 50.4261 24.5114C50.7367 24.7235 51.1326 24.8295 51.6136 24.8295ZM64.3153 26.1705C63.6108 26.1705 62.982 25.9905 62.429 25.6307C61.8797 25.267 61.4479 24.75 61.1335 24.0795C60.8229 23.4053 60.6676 22.5966 60.6676 21.6534C60.6676 20.7102 60.8248 19.9034 61.1392 19.233C61.4574 18.5625 61.893 18.0492 62.446 17.6932C62.9991 17.3371 63.6259 17.1591 64.3267 17.1591C64.8684 17.1591 65.304 17.25 65.6335 17.4318C65.9669 17.6098 66.2244 17.8182 66.4062 18.0568C66.5919 18.2955 66.7358 18.5057 66.8381 18.6875H66.9403V14.3636H68.6392V26H66.9801V24.642H66.8381C66.7358 24.8277 66.5881 25.0398 66.3949 25.2784C66.2055 25.517 65.9441 25.7254 65.6108 25.9034C65.2775 26.0814 64.8456 26.1705 64.3153 26.1705ZM64.6903 24.7216C65.179 24.7216 65.5919 24.5928 65.929 24.3352C66.2699 24.0739 66.5275 23.7121 66.7017 23.25C66.8797 22.7879 66.9688 22.25 66.9688 21.6364C66.9688 21.0303 66.8816 20.5 66.7074 20.0455C66.5331 19.5909 66.2775 19.2367 65.9403 18.983C65.6032 18.7292 65.1866 18.6023 64.6903 18.6023C64.179 18.6023 63.7528 18.7348 63.4119 19C63.071 19.2652 62.8134 19.6269 62.6392 20.0852C62.4688 20.5436 62.3835 21.0606 62.3835 21.6364C62.3835 22.2197 62.4706 22.7443 62.6449 23.2102C62.8191 23.6761 63.0767 24.0455 63.4176 24.3182C63.7623 24.5871 64.1866 24.7216 64.6903 24.7216ZM74.3253 26.1761C73.4654 26.1761 72.7249 25.9924 72.1037 25.625C71.4863 25.2538 71.009 24.733 70.6719 24.0625C70.3385 23.3883 70.1719 22.5985 70.1719 21.6932C70.1719 20.7992 70.3385 20.0114 70.6719 19.3295C71.009 18.6477 71.4787 18.1155 72.081 17.733C72.687 17.3504 73.3954 17.1591 74.206 17.1591C74.6984 17.1591 75.1757 17.2405 75.6378 17.4034C76.0999 17.5663 76.5147 17.822 76.8821 18.1705C77.2495 18.5189 77.5393 18.9716 77.7514 19.5284C77.9635 20.0814 78.0696 20.7538 78.0696 21.5455V22.1477H71.1321V20.875H76.4048C76.4048 20.428 76.3139 20.0322 76.1321 19.6875C75.9503 19.339 75.6946 19.0644 75.3651 18.8636C75.0393 18.6629 74.6567 18.5625 74.2173 18.5625C73.7401 18.5625 73.3234 18.6799 72.9673 18.9148C72.6151 19.1458 72.3423 19.4489 72.1491 19.8239C71.9598 20.1951 71.8651 20.5985 71.8651 21.0341V22.0284C71.8651 22.6117 71.9673 23.108 72.1719 23.517C72.3802 23.9261 72.67 24.2386 73.0412 24.4545C73.4124 24.6667 73.8461 24.7727 74.3423 24.7727C74.6643 24.7727 74.9579 24.7273 75.223 24.6364C75.4882 24.5417 75.7173 24.4015 75.9105 24.2159C76.1037 24.0303 76.2514 23.8011 76.3537 23.5284L77.9616 23.8182C77.8329 24.2917 77.6018 24.7064 77.2685 25.0625C76.9389 25.4148 76.5241 25.6894 76.0241 25.8864C75.5279 26.0795 74.9616 26.1761 74.3253 26.1761ZM79.4545 26V17.2727H81.0852V18.6932H81.1932C81.375 18.2121 81.6723 17.8371 82.0852 17.5682C82.4981 17.2955 82.9924 17.1591 83.5682 17.1591C84.1515 17.1591 84.6402 17.2955 85.0341 17.5682C85.4318 17.8409 85.7254 18.2159 85.9148 18.6932H86.0057C86.214 18.2273 86.5455 17.8561 87 17.5795C87.4545 17.2992 87.9962 17.1591 88.625 17.1591C89.4167 17.1591 90.0625 17.4072 90.5625 17.9034C91.0663 18.3996 91.3182 19.1477 91.3182 20.1477V26H89.6193V20.3068C89.6193 19.7159 89.4583 19.2879 89.1364 19.0227C88.8144 18.7576 88.4299 18.625 87.983 18.625C87.4299 18.625 87 18.7955 86.6932 19.1364C86.3864 19.4735 86.233 19.9072 86.233 20.4375V26H84.5398V20.1989C84.5398 19.7254 84.392 19.3447 84.0966 19.0568C83.8011 18.7689 83.4167 18.625 82.9432 18.625C82.6212 18.625 82.3239 18.7102 82.0511 18.8807C81.7822 19.0473 81.5644 19.2803 81.3977 19.5795C81.2348 19.8788 81.1534 20.2254 81.1534 20.6193V26H79.4545ZM96.7713 26.1761C95.9531 26.1761 95.2391 25.9886 94.6293 25.6136C94.0194 25.2386 93.5459 24.714 93.2088 24.0398C92.8717 23.3655 92.7031 22.5777 92.7031 21.6761C92.7031 20.7708 92.8717 19.9792 93.2088 19.3011C93.5459 18.6231 94.0194 18.0966 94.6293 17.7216C95.2391 17.3466 95.9531 17.1591 96.7713 17.1591C97.5895 17.1591 98.3035 17.3466 98.9134 17.7216C99.5232 18.0966 99.9967 18.6231 100.334 19.3011C100.671 19.9792 100.839 20.7708 100.839 21.6761C100.839 22.5777 100.671 23.3655 100.334 24.0398C99.9967 24.714 99.5232 25.2386 98.9134 25.6136C98.3035 25.9886 97.5895 26.1761 96.7713 26.1761ZM96.777 24.75C97.3073 24.75 97.7467 24.6098 98.0952 24.3295C98.4437 24.0492 98.7012 23.6761 98.8679 23.2102C99.0384 22.7443 99.1236 22.2311 99.1236 21.6705C99.1236 21.1136 99.0384 20.6023 98.8679 20.1364C98.7012 19.6667 98.4437 19.2898 98.0952 19.0057C97.7467 18.7216 97.3073 18.5795 96.777 18.5795C96.2429 18.5795 95.7997 18.7216 95.4474 19.0057C95.099 19.2898 94.8395 19.6667 94.669 20.1364C94.5024 20.6023 94.419 21.1136 94.419 21.6705C94.419 22.2311 94.5024 22.7443 94.669 23.2102C94.8395 23.6761 95.099 24.0492 95.4474 24.3295C95.7997 24.6098 96.2429 24.75 96.777 24.75Z" fill="black"/>
</svg>
