<?xml version="1.0" encoding="UTF-8"?>
<svg xmlns="http://www.w3.org/2000/svg" xmlns:xlink="http://www.w3.org/1999/xlink" width="479px" height="435px" viewBox="0 0 478 435" version="1.1">
<g id="surface1">
<path style=" stroke:none;fill-rule:nonzero;fill:rgb(62.7451%,45.09804%,70.980394%);fill-opacity:1;" d="M 337.804688 435 C 335.96875 435 334.097656 434.640625 332.308594 433.867188 C 325.214844 430.824219 321.921875 422.605469 324.960938 415.5 L 450.476562 121.996094 C 453.515625 114.894531 461.722656 111.601562 468.820312 114.640625 C 475.910156 117.683594 479.203125 125.902344 476.164062 133.003906 L 350.652344 426.511719 C 348.382812 431.816406 343.222656 434.996094 337.804688 434.996094 Z M 337.804688 435 "/>
<path style=" stroke:none;fill-rule:nonzero;fill:rgb(28.627452%,76.078433%,90.588236%);fill-opacity:1;" d="M 13.976562 227.722656 C 7.402344 227.722656 1.542969 223.082031 0.253906 216.40625 C -1.207031 208.847656 3.761719 201.53125 11.351562 200.078125 L 461.359375 113.761719 C 468.945312 112.308594 476.285156 117.257812 477.746094 124.824219 C 479.203125 132.390625 474.238281 139.699219 466.648438 141.15625 L 16.636719 227.46875 C 15.75 227.640625 14.859375 227.722656 13.976562 227.722656 Z M 13.976562 227.722656 "/>
<path style=" stroke:none;fill-rule:nonzero;fill:rgb(100%,100%,100%);fill-opacity:1;" d="M 338.285156 427.839844 C 341.675781 427.839844 344.425781 425.089844 344.425781 421.699219 C 344.425781 418.304688 341.675781 415.554688 338.285156 415.554688 C 334.898438 415.554688 332.15625 418.304688 332.15625 421.699219 C 332.15625 425.089844 334.898438 427.839844 338.285156 427.839844 Z M 338.285156 427.839844 "/>
<path style=" stroke:none;fill-rule:nonzero;fill:rgb(100%,100%,100%);fill-opacity:1;" d="M 359.242188 378.859375 C 362.632812 378.859375 365.378906 376.109375 365.378906 372.71875 C 365.378906 369.324219 362.632812 366.574219 359.242188 366.574219 C 355.859375 366.574219 353.109375 369.324219 353.109375 372.71875 C 353.109375 376.109375 355.859375 378.859375 359.242188 378.859375 Z M 359.242188 378.859375 "/>
<path style=" stroke:none;fill-rule:nonzero;fill:rgb(100%,100%,100%);fill-opacity:1;" d="M 380.195312 329.878906 C 383.585938 329.878906 386.328125 327.128906 386.328125 323.734375 C 386.328125 320.34375 383.585938 317.59375 380.195312 317.59375 C 376.808594 317.59375 374.058594 320.34375 374.058594 323.734375 C 374.058594 327.128906 376.808594 329.878906 380.195312 329.878906 Z M 380.195312 329.878906 "/>
<path style=" stroke:none;fill-rule:nonzero;fill:rgb(100%,100%,100%);fill-opacity:1;" d="M 401.144531 280.898438 C 404.535156 280.898438 407.28125 278.148438 407.28125 274.753906 C 407.28125 271.363281 404.535156 268.613281 401.144531 268.613281 C 397.753906 268.613281 395.007812 271.363281 395.007812 274.753906 C 395.007812 278.148438 397.753906 280.898438 401.144531 280.898438 Z M 401.144531 280.898438 "/>
<path style=" stroke:none;fill-rule:nonzero;fill:rgb(100%,100%,100%);fill-opacity:1;" d="M 422.101562 231.917969 C 425.488281 231.917969 428.238281 229.167969 428.238281 225.773438 C 428.238281 222.382812 425.488281 219.632812 422.101562 219.632812 C 418.710938 219.632812 415.960938 222.382812 415.960938 225.773438 C 415.960938 229.167969 418.710938 231.917969 422.101562 231.917969 Z M 422.101562 231.917969 "/>
<path style=" stroke:none;fill-rule:nonzero;fill:rgb(100%,100%,100%);fill-opacity:1;" d="M 443.054688 182.9375 C 446.445312 182.9375 449.191406 180.1875 449.191406 176.792969 C 449.191406 173.402344 446.445312 170.652344 443.054688 170.652344 C 439.664062 170.652344 436.917969 173.402344 436.917969 176.792969 C 436.917969 180.1875 439.664062 182.9375 443.054688 182.9375 Z M 443.054688 182.9375 "/>
<path style=" stroke:none;fill-rule:nonzero;fill:rgb(100%,100%,100%);fill-opacity:1;" d="M 464.007812 133.957031 C 467.398438 133.957031 470.144531 131.207031 470.144531 127.8125 C 470.144531 124.421875 467.398438 121.671875 464.007812 121.671875 C 460.617188 121.671875 457.871094 124.421875 457.871094 127.8125 C 457.871094 131.207031 460.617188 133.957031 464.007812 133.957031 Z M 464.007812 133.957031 "/>
<path style=" stroke:none;fill-rule:nonzero;fill:rgb(64.313728%,45.09804%,72.549021%);fill-opacity:1;" d="M 463.347656 141.703125 C 460.160156 141.703125 456.953125 140.613281 454.332031 138.378906 L 321 24.65625 C 315.132812 19.65625 314.417969 10.820312 319.402344 4.933594 C 324.386719 -0.957031 333.1875 -1.675781 339.046875 3.332031 L 472.378906 117.050781 C 478.253906 122.054688 478.960938 130.886719 473.976562 136.773438 C 471.21875 140.03125 467.296875 141.710938 463.347656 141.710938 Z M 463.347656 141.703125 "/>
<path style=" stroke:none;fill-rule:nonzero;fill:rgb(100%,100%,100%);fill-opacity:1;" d="M 464.007812 133.957031 C 467.398438 133.957031 470.144531 131.207031 470.144531 127.8125 C 470.144531 124.421875 467.398438 121.671875 464.007812 121.671875 C 460.617188 121.671875 457.871094 124.421875 457.871094 127.8125 C 457.871094 131.207031 460.617188 133.957031 464.007812 133.957031 Z M 464.007812 133.957031 "/>
<path style=" stroke:none;fill-rule:nonzero;fill:rgb(100%,100%,100%);fill-opacity:1;" d="M 419.363281 96.019531 C 422.753906 96.019531 425.503906 93.269531 425.503906 89.878906 C 425.503906 86.484375 422.753906 83.734375 419.363281 83.734375 C 415.976562 83.734375 413.234375 86.484375 413.234375 89.878906 C 413.234375 93.269531 415.976562 96.019531 419.363281 96.019531 Z M 419.363281 96.019531 "/>
<path style=" stroke:none;fill-rule:nonzero;fill:rgb(100%,100%,100%);fill-opacity:1;" d="M 374.734375 58.089844 C 378.125 58.089844 380.875 55.335938 380.875 51.945312 C 380.875 48.550781 378.125 45.800781 374.734375 45.800781 C 371.34375 45.800781 368.597656 48.550781 368.597656 51.945312 C 368.597656 55.335938 371.34375 58.089844 374.734375 58.089844 Z M 374.734375 58.089844 "/>
<path style=" stroke:none;fill-rule:nonzero;fill:rgb(100%,100%,100%);fill-opacity:1;" d="M 330.101562 20.148438 C 333.492188 20.148438 336.238281 17.398438 336.238281 14.007812 C 336.238281 10.613281 333.492188 7.863281 330.101562 7.863281 C 326.714844 7.863281 323.964844 10.613281 323.964844 14.007812 C 323.964844 17.398438 326.714844 20.148438 330.101562 20.148438 Z M 330.101562 20.148438 "/>
<path style=" stroke:none;fill-rule:nonzero;fill:rgb(100%,100%,100%);fill-opacity:1;" d="M 464.007812 133.957031 C 467.398438 133.957031 470.144531 131.207031 470.144531 127.8125 C 470.144531 124.421875 467.398438 121.671875 464.007812 121.671875 C 460.617188 121.671875 457.871094 124.421875 457.871094 127.8125 C 457.871094 131.207031 460.617188 133.957031 464.007812 133.957031 Z M 464.007812 133.957031 "/>
<path style=" stroke:none;fill-rule:nonzero;fill:rgb(100%,100%,100%);fill-opacity:1;" d="M 407.8125 144.78125 C 411.199219 144.78125 413.941406 142.03125 413.941406 138.636719 C 413.941406 135.246094 411.199219 132.496094 407.8125 132.496094 C 404.421875 132.496094 401.671875 135.246094 401.671875 138.636719 C 401.671875 142.03125 404.421875 144.78125 407.8125 144.78125 Z M 407.8125 144.78125 "/>
<path style=" stroke:none;fill-rule:nonzero;fill:rgb(100%,100%,100%);fill-opacity:1;" d="M 351.609375 155.605469 C 355 155.605469 357.746094 152.855469 357.746094 149.460938 C 357.746094 146.070312 355 143.320312 351.609375 143.320312 C 348.21875 143.320312 345.472656 146.070312 345.472656 149.460938 C 345.472656 152.855469 348.21875 155.605469 351.609375 155.605469 Z M 351.609375 155.605469 "/>
<path style=" stroke:none;fill-rule:nonzero;fill:rgb(100%,100%,100%);fill-opacity:1;" d="M 295.410156 166.433594 C 298.800781 166.433594 301.546875 163.683594 301.546875 160.292969 C 301.546875 156.898438 298.800781 154.148438 295.410156 154.148438 C 292.019531 154.148438 289.273438 156.898438 289.273438 160.292969 C 289.273438 163.683594 292.019531 166.433594 295.410156 166.433594 Z M 295.410156 166.433594 "/>
<path style=" stroke:none;fill-rule:nonzero;fill:rgb(100%,100%,100%);fill-opacity:1;" d="M 239.214844 177.257812 C 242.601562 177.257812 245.347656 174.507812 245.347656 171.113281 C 245.347656 167.722656 242.601562 164.972656 239.214844 164.972656 C 235.824219 164.972656 233.078125 167.722656 233.078125 171.113281 C 233.078125 174.507812 235.824219 177.257812 239.214844 177.257812 Z M 239.214844 177.257812 "/>
<path style=" stroke:none;fill-rule:nonzero;fill:rgb(100%,100%,100%);fill-opacity:1;" d="M 183.015625 188.082031 C 186.40625 188.082031 189.152344 185.332031 189.152344 181.9375 C 189.152344 178.546875 186.40625 175.796875 183.015625 175.796875 C 179.628906 175.796875 176.878906 178.546875 176.878906 181.9375 C 176.878906 185.332031 179.628906 188.082031 183.015625 188.082031 Z M 183.015625 188.082031 "/>
<path style=" stroke:none;fill-rule:nonzero;fill:rgb(100%,100%,100%);fill-opacity:1;" d="M 126.8125 198.910156 C 130.203125 198.910156 132.949219 196.160156 132.949219 192.769531 C 132.949219 189.375 130.203125 186.625 126.8125 186.625 C 123.425781 186.625 120.675781 189.375 120.675781 192.769531 C 120.675781 196.160156 123.425781 198.910156 126.8125 198.910156 Z M 126.8125 198.910156 "/>
<path style=" stroke:none;fill-rule:nonzero;fill:rgb(100%,100%,100%);fill-opacity:1;" d="M 70.617188 209.734375 C 74.003906 209.734375 76.753906 206.984375 76.753906 203.59375 C 76.753906 200.199219 74.003906 197.449219 70.617188 197.449219 C 67.226562 197.449219 64.480469 200.199219 64.480469 203.59375 C 64.480469 206.984375 67.226562 209.734375 70.617188 209.734375 Z M 70.617188 209.734375 "/>
<path style=" stroke:none;fill-rule:nonzero;fill:rgb(100%,100%,100%);fill-opacity:1;" d="M 14.417969 220.558594 C 17.808594 220.558594 20.554688 217.808594 20.554688 214.417969 C 20.554688 211.023438 17.808594 208.273438 14.417969 208.273438 C 11.03125 208.273438 8.28125 211.023438 8.28125 214.417969 C 8.28125 217.808594 11.03125 220.558594 14.417969 220.558594 Z M 14.417969 220.558594 "/>
<path style=" stroke:none;fill-rule:nonzero;fill:rgb(27.843139%,62.7451%,84.313726%);fill-opacity:1;" d="M 463.324219 141 C 463.222656 141 463.117188 141 463.011719 141 L 172.761719 134.671875 C 165.046875 134.5 158.929688 128.207031 159.101562 120.613281 C 159.273438 113.019531 165.664062 106.988281 173.382812 107.167969 L 463.632812 113.496094 C 471.34375 113.667969 477.460938 119.960938 477.292969 127.554688 C 477.121094 135.046875 470.894531 141.003906 463.324219 141.003906 Z M 463.324219 141 "/>
<path style=" stroke:none;fill-rule:nonzero;fill:rgb(100%,100%,100%);fill-opacity:1;" d="M 464.007812 133.957031 C 467.398438 133.957031 470.144531 131.207031 470.144531 127.8125 C 470.144531 124.421875 467.398438 121.671875 464.007812 121.671875 C 460.617188 121.671875 457.871094 124.421875 457.871094 127.8125 C 457.871094 131.207031 460.617188 133.957031 464.007812 133.957031 Z M 464.007812 133.957031 "/>
<path style=" stroke:none;fill-rule:nonzero;fill:rgb(100%,100%,100%);fill-opacity:1;" d="M 405.886719 132.671875 C 409.277344 132.671875 412.019531 129.921875 412.019531 126.53125 C 412.019531 123.136719 409.277344 120.386719 405.886719 120.386719 C 402.496094 120.386719 399.75 123.136719 399.75 126.53125 C 399.75 129.921875 402.496094 132.671875 405.886719 132.671875 Z M 405.886719 132.671875 "/>
<path style=" stroke:none;fill-rule:nonzero;fill:rgb(100%,100%,100%);fill-opacity:1;" d="M 347.769531 131.382812 C 351.160156 131.382812 353.90625 128.632812 353.90625 125.242188 C 353.90625 121.847656 351.160156 119.097656 347.769531 119.097656 C 344.378906 119.097656 341.632812 121.847656 341.632812 125.242188 C 341.632812 128.632812 344.378906 131.382812 347.769531 131.382812 Z M 347.769531 131.382812 "/>
<path style=" stroke:none;fill-rule:nonzero;fill:rgb(100%,100%,100%);fill-opacity:1;" d="M 289.652344 130.101562 C 293.039062 130.101562 295.789062 127.351562 295.789062 123.957031 C 295.789062 120.566406 293.039062 117.816406 289.652344 117.816406 C 286.261719 117.816406 283.515625 120.566406 283.515625 123.957031 C 283.515625 127.351562 286.261719 130.101562 289.652344 130.101562 Z M 289.652344 130.101562 "/>
<path style=" stroke:none;fill-rule:nonzero;fill:rgb(100%,100%,100%);fill-opacity:1;" d="M 231.53125 128.816406 C 234.917969 128.816406 237.664062 126.066406 237.664062 122.675781 C 237.664062 119.28125 234.917969 116.53125 231.53125 116.53125 C 228.140625 116.53125 225.394531 119.28125 225.394531 122.675781 C 225.394531 126.066406 228.140625 128.816406 231.53125 128.816406 Z M 231.53125 128.816406 "/>
<path style=" stroke:none;fill-rule:nonzero;fill:rgb(100%,100%,100%);fill-opacity:1;" d="M 173.414062 127.53125 C 176.800781 127.53125 179.550781 124.78125 179.550781 121.390625 C 179.550781 117.996094 176.800781 115.246094 173.414062 115.246094 C 170.023438 115.246094 167.277344 117.996094 167.277344 121.390625 C 167.277344 124.78125 170.023438 127.53125 173.414062 127.53125 Z M 173.414062 127.53125 "/>
<path style=" stroke:none;fill-rule:nonzero;fill:rgb(22.745098%,36.470589%,68.235296%);fill-opacity:1;" d="M 156.195312 304.570312 C 151.1875 304.570312 146.351562 301.875 143.839844 297.152344 C 140.21875 290.335938 142.804688 281.875 149.628906 278.25 L 456.753906 115.144531 C 463.574219 111.527344 472.039062 114.113281 475.660156 120.933594 C 479.28125 127.746094 476.691406 136.207031 469.875 139.832031 L 162.742188 302.933594 C 160.652344 304.042969 158.40625 304.570312 156.195312 304.570312 Z M 156.195312 304.570312 "/>
<path style=" stroke:none;fill-rule:nonzero;fill:rgb(100%,100%,100%);fill-opacity:1;" d="M 464.007812 133.957031 C 467.398438 133.957031 470.144531 131.207031 470.144531 127.8125 C 470.144531 124.421875 467.398438 121.671875 464.007812 121.671875 C 460.617188 121.671875 457.871094 124.421875 457.871094 127.8125 C 457.871094 131.207031 460.617188 133.957031 464.007812 133.957031 Z M 464.007812 133.957031 "/>
<path style=" stroke:none;fill-rule:nonzero;fill:rgb(100%,100%,100%);fill-opacity:1;" d="M 412.761719 161.199219 C 416.152344 161.199219 418.898438 158.445312 418.898438 155.054688 C 418.898438 151.660156 416.152344 148.910156 412.761719 148.910156 C 409.371094 148.910156 406.625 151.660156 406.625 155.054688 C 406.625 158.445312 409.371094 161.199219 412.761719 161.199219 Z M 412.761719 161.199219 "/>
<path style=" stroke:none;fill-rule:nonzero;fill:rgb(100%,100%,100%);fill-opacity:1;" d="M 361.53125 188.445312 C 364.917969 188.445312 367.660156 185.695312 367.660156 182.300781 C 367.660156 178.910156 364.917969 176.15625 361.53125 176.15625 C 358.140625 176.15625 355.394531 178.910156 355.394531 182.300781 C 355.394531 185.695312 358.140625 188.445312 361.53125 188.445312 Z M 361.53125 188.445312 "/>
<path style=" stroke:none;fill-rule:nonzero;fill:rgb(100%,100%,100%);fill-opacity:1;" d="M 310.28125 215.683594 C 313.671875 215.683594 316.417969 212.933594 316.417969 209.542969 C 316.417969 206.148438 313.671875 203.398438 310.28125 203.398438 C 306.890625 203.398438 304.144531 206.148438 304.144531 209.542969 C 304.144531 212.933594 306.890625 215.683594 310.28125 215.683594 Z M 310.28125 215.683594 "/>
<path style=" stroke:none;fill-rule:nonzero;fill:rgb(100%,100%,100%);fill-opacity:1;" d="M 259.046875 242.925781 C 262.433594 242.925781 265.179688 240.175781 265.179688 236.78125 C 265.179688 233.390625 262.433594 230.640625 259.046875 230.640625 C 255.65625 230.640625 252.910156 233.390625 252.910156 236.78125 C 252.910156 240.175781 255.65625 242.925781 259.046875 242.925781 Z M 259.046875 242.925781 "/>
<path style=" stroke:none;fill-rule:nonzero;fill:rgb(100%,100%,100%);fill-opacity:1;" d="M 207.804688 270.171875 C 211.191406 270.171875 213.9375 267.421875 213.9375 264.027344 C 213.9375 260.636719 211.191406 257.882812 207.804688 257.882812 C 204.414062 257.882812 201.667969 260.636719 201.667969 264.027344 C 201.667969 267.421875 204.414062 270.171875 207.804688 270.171875 Z M 207.804688 270.171875 "/>
<path style=" stroke:none;fill-rule:nonzero;fill:rgb(100%,100%,100%);fill-opacity:1;" d="M 156.566406 297.414062 C 159.957031 297.414062 162.703125 294.660156 162.703125 291.269531 C 162.703125 287.875 159.957031 285.125 156.566406 285.125 C 153.179688 285.125 150.429688 287.875 150.429688 291.269531 C 150.429688 294.660156 153.179688 297.414062 156.566406 297.414062 Z M 156.566406 297.414062 "/>
</g>
</svg>
