<svg width="157" height="36" viewBox="0 0 157 36" fill="none" xmlns="http://www.w3.org/2000/svg">
<rect width="157" height="36" rx="18" fill="black"/>
<path d="M25.3182 18.2727C25.3182 20.1534 24.9659 21.7642 24.2614 23.1051C23.5625 24.4403 22.608 25.4631 21.3977 26.1733C20.1932 26.8835 18.8267 27.2386 17.2983 27.2386C15.7699 27.2386 14.4006 26.8835 13.1903 26.1733C11.9858 25.4574 11.0313 24.4318 10.3267 23.0966C9.62784 21.7557 9.27841 20.1477 9.27841 18.2727C9.27841 16.392 9.62784 14.7841 10.3267 13.4489C11.0313 12.108 11.9858 11.0824 13.1903 10.3722C14.4006 9.66193 15.7699 9.30682 17.2983 9.30682C18.8267 9.30682 20.1932 9.66193 21.3977 10.3722C22.608 11.0824 23.5625 12.108 24.2614 13.4489C24.9659 14.7841 25.3182 16.392 25.3182 18.2727ZM22.1392 18.2727C22.1392 16.9489 21.9318 15.8324 21.517 14.9233C21.108 14.0085 20.5398 13.3182 19.8125 12.8523C19.0852 12.3807 18.2472 12.1449 17.2983 12.1449C16.3494 12.1449 15.5114 12.3807 14.7841 12.8523C14.0568 13.3182 13.4858 14.0085 13.071 14.9233C12.6619 15.8324 12.4574 16.9489 12.4574 18.2727C12.4574 19.5966 12.6619 20.7159 13.071 21.6307C13.4858 22.5398 14.0568 23.2301 14.7841 23.7017C15.5114 24.1676 16.3494 24.4006 17.2983 24.4006C18.2472 24.4006 19.0852 24.1676 19.8125 23.7017C20.5398 23.2301 21.108 22.5398 21.517 21.6307C21.9318 20.7159 22.1392 19.5966 22.1392 18.2727ZM51.7933 14.3438C51.7138 13.5994 51.3786 13.0199 50.7876 12.6051C50.2024 12.1903 49.4411 11.983 48.5036 11.983C47.8445 11.983 47.2791 12.0824 46.8075 12.2812C46.3359 12.4801 45.9751 12.75 45.7251 13.0909C45.4751 13.4318 45.3473 13.821 45.3416 14.2585C45.3416 14.6222 45.424 14.9375 45.5888 15.2045C45.7592 15.4716 45.9893 15.6989 46.2791 15.8864C46.5689 16.0682 46.8899 16.2216 47.2422 16.3466C47.5945 16.4716 47.9496 16.5767 48.3075 16.6619L49.9439 17.071C50.603 17.2244 51.2365 17.4318 51.8445 17.6932C52.4581 17.9545 53.0064 18.2841 53.4893 18.6818C53.978 19.0795 54.3643 19.5597 54.6484 20.1222C54.9325 20.6847 55.0746 21.3437 55.0746 22.0994C55.0746 23.1222 54.8132 24.0227 54.2905 24.8011C53.7678 25.5739 53.0121 26.179 52.0234 26.6165C51.0405 27.0483 49.8501 27.2642 48.4524 27.2642C47.0945 27.2642 45.9155 27.054 44.9155 26.6335C43.9212 26.2131 43.1428 25.5994 42.5803 24.7926C42.0234 23.9858 41.7223 23.0028 41.6768 21.8438H44.7876C44.8331 22.4517 45.0206 22.9574 45.3501 23.3608C45.6797 23.7642 46.1087 24.0653 46.6371 24.2642C47.1712 24.4631 47.7678 24.5625 48.4268 24.5625C49.1143 24.5625 49.7166 24.4602 50.2337 24.2557C50.7564 24.0455 51.1655 23.7557 51.4609 23.3864C51.7564 23.0114 51.907 22.5739 51.9126 22.0739C51.907 21.6193 51.7734 21.2443 51.5121 20.9489C51.2507 20.6477 50.8842 20.3977 50.4126 20.1989C49.9467 19.9943 49.4013 19.8125 48.7763 19.6534L46.7905 19.142C45.353 18.7727 44.2166 18.2131 43.3814 17.4631C42.5518 16.7074 42.1371 15.7045 42.1371 14.4545C42.1371 13.4261 42.4155 12.5256 42.9723 11.7528C43.5348 10.9801 44.299 10.3807 45.2649 9.95454C46.2308 9.52273 47.3246 9.30682 48.5462 9.30682C49.7848 9.30682 50.87 9.52273 51.8018 9.95454C52.7393 10.3807 53.4751 10.9744 54.0092 11.7358C54.5433 12.4915 54.8189 13.3608 54.8359 14.3438H51.7933ZM71.1264 12.196V9.54545H85.0526V12.196H79.6577V27H76.5213V12.196H71.1264ZM101.737 27V9.54545H108.283C109.624 9.54545 110.749 9.77841 111.658 10.2443C112.572 10.7102 113.263 11.3636 113.729 12.2045C114.2 13.0398 114.436 14.0142 114.436 15.1278C114.436 16.2472 114.197 17.2187 113.72 18.0426C113.249 18.8608 112.553 19.4943 111.632 19.9432C110.712 20.3864 109.581 20.608 108.24 20.608H103.578V17.983H107.814C108.598 17.983 109.24 17.875 109.74 17.6591C110.24 17.4375 110.609 17.1165 110.848 16.696C111.092 16.2699 111.214 15.7472 111.214 15.1278C111.214 14.5085 111.092 13.9801 110.848 13.5426C110.604 13.0994 110.232 12.7642 109.732 12.5369C109.232 12.304 108.587 12.1875 107.797 12.1875H104.899V27H101.737ZM110.754 19.0909L115.075 27H111.547L107.303 19.0909H110.754ZM146.943 18.2727C146.943 20.1534 146.591 21.7642 145.886 23.1051C145.188 24.4403 144.233 25.4631 143.023 26.1733C141.818 26.8835 140.452 27.2386 138.923 27.2386C137.395 27.2386 136.026 26.8835 134.815 26.1733C133.611 25.4574 132.656 24.4318 131.952 23.0966C131.253 21.7557 130.903 20.1477 130.903 18.2727C130.903 16.392 131.253 14.7841 131.952 13.4489C132.656 12.108 133.611 11.0824 134.815 10.3722C136.026 9.66193 137.395 9.30682 138.923 9.30682C140.452 9.30682 141.818 9.66193 143.023 10.3722C144.233 11.0824 145.188 12.108 145.886 13.4489C146.591 14.7841 146.943 16.392 146.943 18.2727ZM143.764 18.2727C143.764 16.9489 143.557 15.8324 143.142 14.9233C142.733 14.0085 142.165 13.3182 141.438 12.8523C140.71 12.3807 139.872 12.1449 138.923 12.1449C137.974 12.1449 137.136 12.3807 136.409 12.8523C135.682 13.3182 135.111 14.0085 134.696 14.9233C134.287 15.8324 134.082 16.9489 134.082 18.2727C134.082 19.5966 134.287 20.7159 134.696 21.6307C135.111 22.5398 135.682 23.2301 136.409 23.7017C137.136 24.1676 137.974 24.4006 138.923 24.4006C139.872 24.4006 140.71 24.1676 141.438 23.7017C142.165 23.2301 142.733 22.5398 143.142 21.6307C143.557 20.7159 143.764 19.5966 143.764 18.2727Z" fill="white"/>
</svg>
