<svg width="157" height="32" viewBox="0 0 157 32" fill="none" xmlns="http://www.w3.org/2000/svg">
<rect width="157" height="32" rx="16" fill="#636363"/>
<path d="M25.3182 16.2727C25.3182 18.1534 24.9659 19.7642 24.2614 21.1051C23.5625 22.4403 22.608 23.4631 21.3977 24.1733C20.1932 24.8835 18.8267 25.2386 17.2983 25.2386C15.7699 25.2386 14.4006 24.8835 13.1903 24.1733C11.9858 23.4574 11.0313 22.4318 10.3267 21.0966C9.62784 19.7557 9.27841 18.1477 9.27841 16.2727C9.27841 14.392 9.62784 12.7841 10.3267 11.4489C11.0313 10.108 11.9858 9.08239 13.1903 8.37216C14.4006 7.66193 15.7699 7.30682 17.2983 7.30682C18.8267 7.30682 20.1932 7.66193 21.3977 8.37216C22.608 9.08239 23.5625 10.108 24.2614 11.4489C24.9659 12.7841 25.3182 14.392 25.3182 16.2727ZM22.1392 16.2727C22.1392 14.9489 21.9318 13.8324 21.517 12.9233C21.108 12.0085 20.5398 11.3182 19.8125 10.8523C19.0852 10.3807 18.2472 10.1449 17.2983 10.1449C16.3494 10.1449 15.5114 10.3807 14.7841 10.8523C14.0568 11.3182 13.4858 12.0085 13.071 12.9233C12.6619 13.8324 12.4574 14.9489 12.4574 16.2727C12.4574 17.5966 12.6619 18.7159 13.071 19.6307C13.4858 20.5398 14.0568 21.2301 14.7841 21.7017C15.5114 22.1676 16.3494 22.4006 17.2983 22.4006C18.2472 22.4006 19.0852 22.1676 19.8125 21.7017C20.5398 21.2301 21.108 20.5398 21.517 19.6307C21.9318 18.7159 22.1392 17.5966 22.1392 16.2727ZM51.7933 12.3438C51.7138 11.5994 51.3786 11.0199 50.7876 10.6051C50.2024 10.1903 49.4411 9.98295 48.5036 9.98295C47.8445 9.98295 47.2791 10.0824 46.8075 10.2812C46.3359 10.4801 45.9751 10.75 45.7251 11.0909C45.4751 11.4318 45.3473 11.821 45.3416 12.2585C45.3416 12.6222 45.424 12.9375 45.5888 13.2045C45.7592 13.4716 45.9893 13.6989 46.2791 13.8864C46.5689 14.0682 46.8899 14.2216 47.2422 14.3466C47.5945 14.4716 47.9496 14.5767 48.3075 14.6619L49.9439 15.071C50.603 15.2244 51.2365 15.4318 51.8445 15.6932C52.4581 15.9545 53.0064 16.2841 53.4893 16.6818C53.978 17.0795 54.3643 17.5597 54.6484 18.1222C54.9325 18.6847 55.0746 19.3437 55.0746 20.0994C55.0746 21.1222 54.8132 22.0227 54.2905 22.8011C53.7678 23.5739 53.0121 24.179 52.0234 24.6165C51.0405 25.0483 49.8501 25.2642 48.4524 25.2642C47.0945 25.2642 45.9155 25.054 44.9155 24.6335C43.9212 24.2131 43.1428 23.5994 42.5803 22.7926C42.0234 21.9858 41.7223 21.0028 41.6768 19.8438H44.7876C44.8331 20.4517 45.0206 20.9574 45.3501 21.3608C45.6797 21.7642 46.1087 22.0653 46.6371 22.2642C47.1712 22.4631 47.7678 22.5625 48.4268 22.5625C49.1143 22.5625 49.7166 22.4602 50.2337 22.2557C50.7564 22.0455 51.1655 21.7557 51.4609 21.3864C51.7564 21.0114 51.907 20.5739 51.9126 20.0739C51.907 19.6193 51.7734 19.2443 51.5121 18.9489C51.2507 18.6477 50.8842 18.3977 50.4126 18.1989C49.9467 17.9943 49.4013 17.8125 48.7763 17.6534L46.7905 17.142C45.353 16.7727 44.2166 16.2131 43.3814 15.4631C42.5518 14.7074 42.1371 13.7045 42.1371 12.4545C42.1371 11.4261 42.4155 10.5256 42.9723 9.75284C43.5348 8.98011 44.299 8.38068 45.2649 7.95454C46.2308 7.52273 47.3246 7.30682 48.5462 7.30682C49.7848 7.30682 50.87 7.52273 51.8018 7.95454C52.7393 8.38068 53.4751 8.97443 54.0092 9.73579C54.5433 10.4915 54.8189 11.3608 54.8359 12.3438H51.7933ZM71.1264 10.196V7.54545H85.0526V10.196H79.6577V25H76.5213V10.196H71.1264ZM101.737 25V7.54545H108.283C109.624 7.54545 110.749 7.77841 111.658 8.24432C112.572 8.71023 113.263 9.36364 113.729 10.2045C114.2 11.0398 114.436 12.0142 114.436 13.1278C114.436 14.2472 114.197 15.2187 113.72 16.0426C113.249 16.8608 112.553 17.4943 111.632 17.9432C110.712 18.3864 109.581 18.608 108.24 18.608H103.578V15.983H107.814C108.598 15.983 109.24 15.875 109.74 15.6591C110.24 15.4375 110.609 15.1165 110.848 14.696C111.092 14.2699 111.214 13.7472 111.214 13.1278C111.214 12.5085 111.092 11.9801 110.848 11.5426C110.604 11.0994 110.232 10.7642 109.732 10.5369C109.232 10.304 108.587 10.1875 107.797 10.1875H104.899V25H101.737ZM110.754 17.0909L115.075 25H111.547L107.303 17.0909H110.754ZM146.943 16.2727C146.943 18.1534 146.591 19.7642 145.886 21.1051C145.188 22.4403 144.233 23.4631 143.023 24.1733C141.818 24.8835 140.452 25.2386 138.923 25.2386C137.395 25.2386 136.026 24.8835 134.815 24.1733C133.611 23.4574 132.656 22.4318 131.952 21.0966C131.253 19.7557 130.903 18.1477 130.903 16.2727C130.903 14.392 131.253 12.7841 131.952 11.4489C132.656 10.108 133.611 9.08239 134.815 8.37216C136.026 7.66193 137.395 7.30682 138.923 7.30682C140.452 7.30682 141.818 7.66193 143.023 8.37216C144.233 9.08239 145.188 10.108 145.886 11.4489C146.591 12.7841 146.943 14.392 146.943 16.2727ZM143.764 16.2727C143.764 14.9489 143.557 13.8324 143.142 12.9233C142.733 12.0085 142.165 11.3182 141.438 10.8523C140.71 10.3807 139.872 10.1449 138.923 10.1449C137.974 10.1449 137.136 10.3807 136.409 10.8523C135.682 11.3182 135.111 12.0085 134.696 12.9233C134.287 13.8324 134.082 14.9489 134.082 16.2727C134.082 17.5966 134.287 18.7159 134.696 19.6307C135.111 20.5398 135.682 21.2301 136.409 21.7017C137.136 22.1676 137.974 22.4006 138.923 22.4006C139.872 22.4006 140.71 22.1676 141.438 21.7017C142.165 21.2301 142.733 20.5398 143.142 19.6307C143.557 18.7159 143.764 17.5966 143.764 16.2727Z" fill="black"/>
</svg>
