<svg width="140" height="40" viewBox="0 0 140 40" fill="none" xmlns="http://www.w3.org/2000/svg">
<rect x="0.5" y="0.5" width="139" height="39" rx="19.5" fill="white"/>
<rect x="0.5" y="0.5" width="139" height="39" rx="19.5" stroke="black"/>
<path d="M29.125 17.4205C29.0644 16.8826 28.8144 16.4659 28.375 16.1705C27.9356 15.8712 27.3826 15.7216 26.7159 15.7216C26.2386 15.7216 25.8258 15.7973 25.4773 15.9489C25.1288 16.0966 24.858 16.3011 24.6648 16.5625C24.4754 16.8201 24.3807 17.1136 24.3807 17.4432C24.3807 17.7197 24.4451 17.9583 24.5739 18.1591C24.7064 18.3598 24.8788 18.5284 25.0909 18.6648C25.3068 18.7973 25.5379 18.9091 25.7841 19C26.0303 19.0871 26.267 19.1591 26.4943 19.2159L27.6307 19.5114C28.0019 19.6023 28.3826 19.7254 28.7727 19.8807C29.1629 20.036 29.5246 20.2405 29.858 20.4943C30.1913 20.7481 30.4602 21.0625 30.6648 21.4375C30.8731 21.8125 30.9773 22.2614 30.9773 22.7841C30.9773 23.4432 30.8068 24.0284 30.4659 24.5398C30.1288 25.0511 29.6383 25.4545 28.9943 25.75C28.3542 26.0455 27.5795 26.1932 26.6705 26.1932C25.7992 26.1932 25.0455 26.0549 24.4091 25.7784C23.7727 25.5019 23.2746 25.1098 22.9148 24.6023C22.5549 24.0909 22.3561 23.4848 22.3182 22.7841H24.0795C24.1136 23.2045 24.25 23.5549 24.4886 23.8352C24.7311 24.1117 25.0398 24.3182 25.4148 24.4545C25.7936 24.5871 26.2083 24.6534 26.6591 24.6534C27.1553 24.6534 27.5966 24.5758 27.983 24.4205C28.3731 24.2614 28.6799 24.0417 28.9034 23.7614C29.1269 23.4773 29.2386 23.1458 29.2386 22.767C29.2386 22.4223 29.1402 22.1402 28.9432 21.9205C28.75 21.7008 28.4867 21.5189 28.1534 21.375C27.8239 21.2311 27.4508 21.1042 27.0341 20.9943L25.6591 20.6193C24.7273 20.3655 23.9886 19.9924 23.4432 19.5C22.9015 19.0076 22.6307 18.3561 22.6307 17.5455C22.6307 16.875 22.8125 16.2898 23.1761 15.7898C23.5398 15.2898 24.0322 14.9015 24.6534 14.625C25.2746 14.3447 25.9754 14.2045 26.7557 14.2045C27.5436 14.2045 28.2386 14.3428 28.8409 14.6193C29.447 14.8958 29.9242 15.2765 30.2727 15.7614C30.6212 16.2424 30.803 16.7955 30.8182 17.4205H29.125ZM36.2003 26.1761C35.3404 26.1761 34.5999 25.9924 33.9787 25.625C33.3613 25.2538 32.884 24.733 32.5469 24.0625C32.2135 23.3883 32.0469 22.5985 32.0469 21.6932C32.0469 20.7992 32.2135 20.0114 32.5469 19.3295C32.884 18.6477 33.3537 18.1155 33.956 17.733C34.562 17.3504 35.2704 17.1591 36.081 17.1591C36.5734 17.1591 37.0507 17.2405 37.5128 17.4034C37.9749 17.5663 38.3897 17.822 38.7571 18.1705C39.1245 18.5189 39.4143 18.9716 39.6264 19.5284C39.8385 20.0814 39.9446 20.7538 39.9446 21.5455V22.1477H33.0071V20.875H38.2798C38.2798 20.428 38.1889 20.0322 38.0071 19.6875C37.8253 19.339 37.5696 19.0644 37.2401 18.8636C36.9143 18.6629 36.5317 18.5625 36.0923 18.5625C35.6151 18.5625 35.1984 18.6799 34.8423 18.9148C34.4901 19.1458 34.2173 19.4489 34.0241 19.8239C33.8348 20.1951 33.7401 20.5985 33.7401 21.0341V22.0284C33.7401 22.6117 33.8423 23.108 34.0469 23.517C34.2552 23.9261 34.545 24.2386 34.9162 24.4545C35.2874 24.6667 35.7211 24.7727 36.2173 24.7727C36.5393 24.7727 36.8329 24.7273 37.098 24.6364C37.3632 24.5417 37.5923 24.4015 37.7855 24.2159C37.9787 24.0303 38.1264 23.8011 38.2287 23.5284L39.8366 23.8182C39.7079 24.2917 39.4768 24.7064 39.1435 25.0625C38.8139 25.4148 38.3991 25.6894 37.8991 25.8864C37.4029 26.0795 36.8366 26.1761 36.2003 26.1761ZM45.0909 26.1761C44.2311 26.1761 43.4905 25.9924 42.8693 25.625C42.2519 25.2538 41.7746 24.733 41.4375 24.0625C41.1042 23.3883 40.9375 22.5985 40.9375 21.6932C40.9375 20.7992 41.1042 20.0114 41.4375 19.3295C41.7746 18.6477 42.2443 18.1155 42.8466 17.733C43.4527 17.3504 44.161 17.1591 44.9716 17.1591C45.464 17.1591 45.9413 17.2405 46.4034 17.4034C46.8655 17.5663 47.2803 17.822 47.6477 18.1705C48.0152 18.5189 48.3049 18.9716 48.517 19.5284C48.7292 20.0814 48.8352 20.7538 48.8352 21.5455V22.1477H41.8977V20.875H47.1705C47.1705 20.428 47.0795 20.0322 46.8977 19.6875C46.7159 19.339 46.4602 19.0644 46.1307 18.8636C45.8049 18.6629 45.4223 18.5625 44.983 18.5625C44.5057 18.5625 44.089 18.6799 43.733 18.9148C43.3807 19.1458 43.108 19.4489 42.9148 19.8239C42.7254 20.1951 42.6307 20.5985 42.6307 21.0341V22.0284C42.6307 22.6117 42.733 23.108 42.9375 23.517C43.1458 23.9261 43.4356 24.2386 43.8068 24.4545C44.178 24.6667 44.6117 24.7727 45.108 24.7727C45.4299 24.7727 45.7235 24.7273 45.9886 24.6364C46.2538 24.5417 46.483 24.4015 46.6761 24.2159C46.8693 24.0303 47.017 23.8011 47.1193 23.5284L48.7273 23.8182C48.5985 24.2917 48.3674 24.7064 48.0341 25.0625C47.7045 25.4148 47.2898 25.6894 46.7898 25.8864C46.2936 26.0795 45.7273 26.1761 45.0909 26.1761ZM53.9545 29.2727V17.2727H55.6136V18.6875H55.7557C55.8542 18.5057 55.9962 18.2955 56.1818 18.0568C56.3674 17.8182 56.625 17.6098 56.9545 17.4318C57.2841 17.25 57.7197 17.1591 58.2614 17.1591C58.9659 17.1591 59.5947 17.3371 60.1477 17.6932C60.7008 18.0492 61.1345 18.5625 61.4489 19.233C61.767 19.9034 61.9261 20.7102 61.9261 21.6534C61.9261 22.5966 61.7689 23.4053 61.4545 24.0795C61.1402 24.75 60.7083 25.267 60.1591 25.6307C59.6098 25.9905 58.983 26.1705 58.2784 26.1705C57.7481 26.1705 57.3144 26.0814 56.9773 25.9034C56.6439 25.7254 56.3826 25.517 56.1932 25.2784C56.0038 25.0398 55.858 24.8277 55.7557 24.642H55.6534V29.2727H53.9545ZM55.6193 21.6364C55.6193 22.25 55.7083 22.7879 55.8864 23.25C56.0644 23.7121 56.322 24.0739 56.6591 24.3352C56.9962 24.5928 57.4091 24.7216 57.8977 24.7216C58.4053 24.7216 58.8295 24.5871 59.1705 24.3182C59.5114 24.0455 59.7689 23.6761 59.9432 23.2102C60.1212 22.7443 60.2102 22.2197 60.2102 21.6364C60.2102 21.0606 60.1231 20.5436 59.9489 20.0852C59.7784 19.6269 59.5208 19.2652 59.1761 19C58.8352 18.7348 58.4091 18.6023 57.8977 18.6023C57.4053 18.6023 56.9886 18.7292 56.6477 18.983C56.3106 19.2367 56.0549 19.5909 55.8807 20.0455C55.7064 20.5 55.6193 21.0303 55.6193 21.6364ZM63.3295 26V17.2727H64.9716V18.6591H65.0625C65.2216 18.1894 65.5019 17.8201 65.9034 17.5511C66.3087 17.2784 66.767 17.142 67.2784 17.142C67.3845 17.142 67.5095 17.1458 67.6534 17.1534C67.8011 17.161 67.9167 17.1705 68 17.1818V18.8068C67.9318 18.7879 67.8106 18.767 67.6364 18.7443C67.4621 18.7178 67.2879 18.7045 67.1136 18.7045C66.7121 18.7045 66.3542 18.7898 66.0398 18.9602C65.7292 19.1269 65.483 19.3598 65.3011 19.6591C65.1193 19.9545 65.0284 20.2917 65.0284 20.6705V26H63.3295ZM72.3338 26.1761C71.5156 26.1761 70.8016 25.9886 70.1918 25.6136C69.5819 25.2386 69.1084 24.714 68.7713 24.0398C68.4342 23.3655 68.2656 22.5777 68.2656 21.6761C68.2656 20.7708 68.4342 19.9792 68.7713 19.3011C69.1084 18.6231 69.5819 18.0966 70.1918 17.7216C70.8016 17.3466 71.5156 17.1591 72.3338 17.1591C73.152 17.1591 73.866 17.3466 74.4759 17.7216C75.0857 18.0966 75.5592 18.6231 75.8963 19.3011C76.2334 19.9792 76.402 20.7708 76.402 21.6761C76.402 22.5777 76.2334 23.3655 75.8963 24.0398C75.5592 24.714 75.0857 25.2386 74.4759 25.6136C73.866 25.9886 73.152 26.1761 72.3338 26.1761ZM72.3395 24.75C72.8698 24.75 73.3092 24.6098 73.6577 24.3295C74.0062 24.0492 74.2637 23.6761 74.4304 23.2102C74.6009 22.7443 74.6861 22.2311 74.6861 21.6705C74.6861 21.1136 74.6009 20.6023 74.4304 20.1364C74.2637 19.6667 74.0062 19.2898 73.6577 19.0057C73.3092 18.7216 72.8698 18.5795 72.3395 18.5795C71.8054 18.5795 71.3622 18.7216 71.0099 19.0057C70.6615 19.2898 70.402 19.6667 70.2315 20.1364C70.0649 20.6023 69.9815 21.1136 69.9815 21.6705C69.9815 22.2311 70.0649 22.7443 70.2315 23.2102C70.402 23.6761 70.6615 24.0492 71.0099 24.3295C71.3622 24.6098 71.8054 24.75 72.3395 24.75ZM81.0653 26.1705C80.3608 26.1705 79.732 25.9905 79.179 25.6307C78.6297 25.267 78.1979 24.75 77.8835 24.0795C77.5729 23.4053 77.4176 22.5966 77.4176 21.6534C77.4176 20.7102 77.5748 19.9034 77.8892 19.233C78.2074 18.5625 78.643 18.0492 79.196 17.6932C79.7491 17.3371 80.3759 17.1591 81.0767 17.1591C81.6184 17.1591 82.054 17.25 82.3835 17.4318C82.7169 17.6098 82.9744 17.8182 83.1562 18.0568C83.3419 18.2955 83.4858 18.5057 83.5881 18.6875H83.6903V14.3636H85.3892V26H83.7301V24.642H83.5881C83.4858 24.8277 83.3381 25.0398 83.1449 25.2784C82.9555 25.517 82.6941 25.7254 82.3608 25.9034C82.0275 26.0814 81.5956 26.1705 81.0653 26.1705ZM81.4403 24.7216C81.929 24.7216 82.3419 24.5928 82.679 24.3352C83.0199 24.0739 83.2775 23.7121 83.4517 23.25C83.6297 22.7879 83.7188 22.25 83.7188 21.6364C83.7188 21.0303 83.6316 20.5 83.4574 20.0455C83.2831 19.5909 83.0275 19.2367 82.6903 18.983C82.3532 18.7292 81.9366 18.6023 81.4403 18.6023C80.929 18.6023 80.5028 18.7348 80.1619 19C79.821 19.2652 79.5634 19.6269 79.3892 20.0852C79.2188 20.5436 79.1335 21.0606 79.1335 21.6364C79.1335 22.2197 79.2206 22.7443 79.3949 23.2102C79.5691 23.6761 79.8267 24.0455 80.1676 24.3182C80.5123 24.5871 80.9366 24.7216 81.4403 24.7216ZM92.8423 22.3807V17.2727H94.5469V26H92.8764V24.4886H92.7855C92.5848 24.9545 92.2628 25.3428 91.8196 25.6534C91.3802 25.9602 90.8329 26.1136 90.1776 26.1136C89.617 26.1136 89.1207 25.9905 88.6889 25.7443C88.2609 25.4943 87.9238 25.125 87.6776 24.6364C87.4351 24.1477 87.3139 23.5436 87.3139 22.8239V17.2727H89.0128V22.6193C89.0128 23.214 89.1776 23.6875 89.5071 24.0398C89.8366 24.392 90.2647 24.5682 90.7912 24.5682C91.1094 24.5682 91.4257 24.4886 91.7401 24.3295C92.0582 24.1705 92.3215 23.9299 92.5298 23.608C92.742 23.286 92.8461 22.8769 92.8423 22.3807ZM100.006 26.1761C99.161 26.1761 98.4337 25.9848 97.8239 25.6023C97.2178 25.2159 96.7519 24.6837 96.4261 24.0057C96.1004 23.3277 95.9375 22.5511 95.9375 21.6761C95.9375 20.7898 96.1042 20.0076 96.4375 19.3295C96.7708 18.6477 97.2405 18.1155 97.8466 17.733C98.4527 17.3504 99.1667 17.1591 99.9886 17.1591C100.652 17.1591 101.242 17.2822 101.761 17.5284C102.28 17.7708 102.699 18.1117 103.017 18.5511C103.339 18.9905 103.53 19.5038 103.591 20.0909H101.938C101.847 19.6818 101.638 19.3295 101.312 19.0341C100.991 18.7386 100.559 18.5909 100.017 18.5909C99.5436 18.5909 99.1288 18.7159 98.7727 18.9659C98.4205 19.2121 98.1458 19.5644 97.9489 20.0227C97.7519 20.4773 97.6534 21.0152 97.6534 21.6364C97.6534 22.2727 97.75 22.822 97.9432 23.2841C98.1364 23.7462 98.4091 24.1042 98.7614 24.358C99.1174 24.6117 99.536 24.7386 100.017 24.7386C100.339 24.7386 100.631 24.6799 100.892 24.5625C101.157 24.4413 101.379 24.2689 101.557 24.0455C101.739 23.822 101.866 23.553 101.938 23.2386H103.591C103.53 23.803 103.347 24.3068 103.04 24.75C102.733 25.1932 102.322 25.5417 101.807 25.7955C101.295 26.0492 100.695 26.1761 100.006 26.1761ZM108.982 17.2727V18.6364H104.214V17.2727H108.982ZM105.493 15.1818H107.192V23.4375C107.192 23.767 107.241 24.0152 107.339 24.1818C107.438 24.3447 107.565 24.4564 107.72 24.517C107.879 24.5739 108.052 24.6023 108.237 24.6023C108.374 24.6023 108.493 24.5928 108.595 24.5739C108.697 24.5549 108.777 24.5398 108.834 24.5284L109.141 25.9318C109.042 25.9697 108.902 26.0076 108.72 26.0455C108.538 26.0871 108.311 26.1098 108.038 26.1136C107.591 26.1212 107.175 26.0417 106.788 25.875C106.402 25.7083 106.089 25.4508 105.851 25.1023C105.612 24.7538 105.493 24.3163 105.493 23.7898V15.1818ZM116.76 19.4034L115.22 19.6761C115.156 19.4792 115.054 19.2917 114.913 19.1136C114.777 18.9356 114.591 18.7898 114.357 18.6761C114.122 18.5625 113.828 18.5057 113.476 18.5057C112.995 18.5057 112.593 18.6136 112.271 18.8295C111.949 19.0417 111.788 19.3163 111.788 19.6534C111.788 19.9451 111.896 20.1799 112.112 20.358C112.328 20.536 112.677 20.6818 113.158 20.7955L114.544 21.1136C115.347 21.2992 115.946 21.5852 116.339 21.9716C116.733 22.358 116.93 22.8598 116.93 23.4773C116.93 24 116.779 24.4659 116.476 24.875C116.177 25.2803 115.758 25.5985 115.22 25.8295C114.686 26.0606 114.067 26.1761 113.362 26.1761C112.385 26.1761 111.588 25.9678 110.97 25.5511C110.353 25.1307 109.974 24.5341 109.834 23.7614L111.476 23.5114C111.578 23.9394 111.788 24.2633 112.107 24.483C112.425 24.6989 112.839 24.8068 113.351 24.8068C113.908 24.8068 114.353 24.6913 114.686 24.4602C115.019 24.2254 115.186 23.9394 115.186 23.6023C115.186 23.3295 115.084 23.1004 114.879 22.9148C114.679 22.7292 114.37 22.589 113.953 22.4943L112.476 22.1705C111.661 21.9848 111.059 21.6894 110.669 21.2841C110.283 20.8788 110.089 20.3655 110.089 19.7443C110.089 19.2292 110.233 18.7784 110.521 18.392C110.809 18.0057 111.207 17.7045 111.714 17.4886C112.222 17.2689 112.804 17.1591 113.459 17.1591C114.402 17.1591 115.144 17.3636 115.686 17.7727C116.228 18.178 116.586 18.7216 116.76 19.4034Z" fill="black"/>
</svg>
